# xmcd
#
# Track frame offsets: 
#        150
#        5613
#        26420
#        50152
#        75157
#        98762
#        128197
#        147000
#        176159
#        198504
#        219444
#        246630
#        272825
#
# Disc length: 3963 seconds
#
# Revision: 0
# Processed by: cddbd v1.5.1PL0 Copyright (c) Steve Scherf et al.
# Submitted via: ExactAudioCopy v0.95a5
#
DISCID=b70f790d
DTITLE=Thomas D. - Lektionen in Demut
DYEAR=1997
DGENRE=A Cappella
TTITLE0=Prolog
TTITLE1=König der Narren
TTITLE2=Auf dem Planeten des ewigen Regens
TTITLE3=Seelenlos
TTITLE4=Lektionen in Demut
TTITLE5=Avatar Iso Superstar
TTITLE6=Die Speicherstadt
TTITLE7=Uns trennt das Leben
TTITLE8=Wo ist Dein Paradies
TTITLE9=Ich bin der Sturm
TTITLE10=Denk jetzt nicht
TTITLE11=Gebet an den Planet
TTITLE12=Bist Du glücklich
EXTD=
EXTT0=
EXTT1=
EXTT2=
EXTT3=
EXTT4=
EXTT5=
EXTT6=
EXTT7=
EXTT8=
EXTT9=
EXTT10=
EXTT11=
EXTT12=
PLAYORDER=
